<svg width="20" height="20" viewBox="0 0 20 20" fill="none" xmlns="http://www.w3.org/2000/svg">
<path d="M13.707 10.7068C14.098 10.3158 14.098 9.68376 13.707 9.29276C13.512 9.09776 13.256 8.99976 13 8.99976C12.744 8.99976 12.488 9.09776 12.293 9.29276L11 10.5858V2.99976C11 2.44776 10.553 1.99976 10 1.99976C9.44701 1.99976 9.00001 2.44776 9.00001 2.99976V10.5858L7.70701 9.29276C7.31601 8.90176 6.68401 8.90176 6.29301 9.29276C5.90201 9.68376 5.90201 10.3158 6.29301 10.7068L9.29301 13.7068C9.68401 14.0978 10.316 14.0978 10.707 13.7068L13.707 10.7068Z" fill="white"/>
<path d="M3 16C2.44772 16 2 16.4477 2 17C2 17.5523 2.44772 18 3 18H17C17.5523 18 18 17.5523 18 17C18 16.4477 17.5523 16 17 16H3Z" fill="white"/>
</svg>
