<svg width="16" height="16" viewBox="0 0 16 16" fill="none" xmlns="http://www.w3.org/2000/svg">
<path d="M11.707 8.70676C12.098 8.31576 12.098 7.68376 11.707 7.29276C11.512 7.09776 11.256 6.99976 11 6.99976C10.744 6.99976 10.488 7.09776 10.293 7.29276L9.00001 8.58576V0.999756C9.00001 0.447756 8.55301 -0.000244141 8.00001 -0.000244141C7.44701 -0.000244141 7.00001 0.447756 7.00001 0.999756V8.58576L5.70701 7.29276C5.31601 6.90176 4.68401 6.90176 4.29301 7.29276C3.90201 7.68376 3.90201 8.31576 4.29301 8.70676L7.29301 11.7068C7.68401 12.0978 8.31601 12.0978 8.70701 11.7068L11.707 8.70676Z" fill="white"/>
<path d="M1 14C0.447715 14 0 14.4477 0 15C0 15.5523 0.447715 16 1 16H15C15.5523 16 16 15.5523 16 15C16 14.4477 15.5523 14 15 14H1Z" fill="white"/>
</svg>
