<svg width="393" height="545" viewBox="0 0 393 545" fill="none" xmlns="http://www.w3.org/2000/svg">
<rect y="-127" width="393" height="672" fill="#00187F"/>
<rect x="2" y="-125" width="389" height="668" stroke="#FFD682" stroke-width="4"/>
<path d="M153.715 169.251C180.695 165.421 197.986 206.205 196.956 236C176.365 236 158.087 230.89 143.411 219.556C125.885 206.02 124.877 173.345 153.715 169.251Z" stroke="#FFD682" stroke-width="2"/>
<path d="M240.285 169.251C213.305 165.421 196.014 206.205 197.044 236C217.635 236 235.913 230.89 250.589 219.556C268.115 206.02 269.123 173.345 240.285 169.251Z" stroke="#FFD682" stroke-width="2"/>
<path d="M391 236L2 236" stroke="#FFD682" stroke-width="2"/>
<path d="M197 545L197 -138" stroke="#FFD682" stroke-width="2"/>
<path d="M197 235.948C212.244 236.486 247.386 233.048 266 215" stroke="#FFD682" stroke-width="2"/>
<path d="M197 235.948C181.756 236.486 146.614 233.048 128 215" stroke="#FFD682" stroke-width="2"/>
</svg>
