<svg width="393" height="672" viewBox="0 0 393 672" fill="none" xmlns="http://www.w3.org/2000/svg">
<rect x="2" y="2" width="389" height="668" stroke="#FFD682" stroke-width="4"/>
<path d="M153.715 296.251C180.695 292.421 197.986 333.205 196.956 363C176.365 363 158.087 357.89 143.411 346.556C125.885 333.02 124.877 300.345 153.715 296.251Z" stroke="#FFD682" stroke-width="2"/>
<path d="M240.285 296.251C213.305 292.421 196.014 333.205 197.044 363C217.635 363 235.913 357.89 250.589 346.556C268.115 333.02 269.123 300.345 240.285 296.251Z" stroke="#FFD682" stroke-width="2"/>
<path d="M391 363L2 363" stroke="#FFD682" stroke-width="2"/>
<path d="M197 672L197 0" stroke="#FFD682" stroke-width="2"/>
<path d="M197 362.948C212.244 363.486 247.386 360.048 266 342" stroke="#FFD682" stroke-width="2"/>
<path d="M197 362.948C181.756 363.486 146.614 360.048 128 342" stroke="#FFD682" stroke-width="2"/>
</svg>
