<svg width="393" height="672" viewBox="0 0 393 672" fill="none" xmlns="http://www.w3.org/2000/svg">
<rect x="1" y="1" width="391" height="670" stroke="#FFD682" stroke-width="2"/>
<path d="M203 308V473" stroke="#FFD682" stroke-width="2"/>
<path d="M353 361L56 361" stroke="#FFD682" stroke-width="2"/>
<path d="M203 306V470" stroke="#FFD682" stroke-width="2"/>
<path d="M159.715 294.251C186.695 290.421 203.986 331.205 202.956 361C182.365 361 164.087 355.89 149.411 344.556C131.885 331.02 130.877 298.345 159.715 294.251Z" stroke="#FFD682" stroke-width="2"/>
<path d="M246.285 294.251C219.305 290.421 202.014 331.205 203.044 361C223.635 361 241.913 355.89 256.589 344.556C274.115 331.02 275.123 298.345 246.285 294.251Z" stroke="#FFD682" stroke-width="2"/>
<path d="M56.5 361C41.7805 361 27.6638 355.766 17.2556 346.45C6.8473 337.133 1 324.498 1 311.322V212H56.5C71.2195 212 85.3362 217.234 95.7444 226.55C106.153 235.867 112 248.502 112 261.678" stroke="#FFD682" stroke-width="2"/>
</svg>
