<svg width="296" height="428" viewBox="0 0 296 428" fill="none" xmlns="http://www.w3.org/2000/svg">
<g clip-path="url(#clip0_839_24153)">
<rect width="296" height="428" rx="9.18552" fill="#00187F"/>
<g clip-path="url(#clip1_839_24153)">
<path d="M-21.0433 4.69604V99.6957H-68.5664C-68.5664 112.298 -63.5595 124.383 -54.6472 133.294C-45.7349 142.205 -33.6472 147.211 -21.0433 147.211H26.4799V52.18C26.4715 39.5836 21.4609 27.5059 12.5495 18.6019C3.63807 9.69779 -8.44483 4.69604 -21.0433 4.69604V4.69604Z" stroke="#FFD682" stroke-width="2"/>
<path d="M74.6247 -90.3038H27.1016V4.6958C27.1016 17.2977 32.1085 29.3835 41.0208 38.2944C49.9331 47.2054 62.0208 52.2115 74.6247 52.2115V-42.7882H122.148C122.148 -55.3901 117.141 -67.4759 108.229 -76.3868C99.3163 -85.2977 87.2286 -90.3038 74.6247 -90.3038V-90.3038Z" stroke="#FFD682" stroke-width="2"/>
<path d="M122.117 147.201V99.6851C122.117 87.0832 117.11 74.9974 108.198 66.0864C99.2854 57.1755 87.1977 52.1694 74.5938 52.1694V147.201H122.117Z" stroke="#FFD682" stroke-width="2"/>
<path d="M169.625 52.1956V147.227H217.148V99.7112C217.148 87.1093 212.141 75.0235 203.229 66.1126C194.317 57.2017 182.229 52.1956 169.625 52.1956Z" stroke="#FFD682" stroke-width="2"/>
<path d="M122.117 -42.7877V4.72793C122.117 17.3299 127.124 29.4157 136.036 38.3266C144.949 47.2375 157.036 52.2436 169.64 52.2436V4.72793C169.64 -7.874 164.633 -19.9598 155.721 -28.8707C146.809 -37.7816 134.721 -42.7877 122.117 -42.7877V-42.7877Z" stroke="#FFD682" stroke-width="2"/>
<path d="M317.427 4.69604V99.6957H269.904C269.904 112.298 274.911 124.383 283.824 133.294C292.736 142.205 304.824 147.211 317.427 147.211H364.951V52.18C364.942 39.5836 359.932 27.5059 351.02 18.6019C342.109 9.69779 330.026 4.69604 317.427 4.69604Z" stroke="#FFD682" stroke-width="2"/>
<path d="M269.92 -90.3038V-42.7882C269.92 -30.1863 274.927 -18.1005 283.839 -9.18954C292.751 -0.278629 304.839 4.72747 317.443 4.72747V-90.3038H269.92Z" stroke="#FFD682" stroke-width="2"/>
<path d="M174.906 -90.3038V-42.7882C174.906 -30.1863 179.913 -18.1005 188.825 -9.18954C197.738 -0.278629 209.825 4.72747 222.429 4.72747V-90.3038H174.906Z" stroke="#FFD682" stroke-width="2"/>
<path d="M222.414 4.69617V52.2118C222.414 64.8137 227.421 76.8995 236.333 85.8104C245.246 94.7214 257.333 99.7275 269.937 99.7275V52.2118C269.937 39.6099 264.93 27.5241 256.018 18.6132C247.106 9.70227 235.018 4.69617 222.414 4.69617V4.69617Z" stroke="#FFD682" stroke-width="2"/>
<path d="M269.937 296.638V391.669H222.414V344.153C222.414 331.551 227.421 319.466 236.333 310.555C245.246 301.644 257.333 296.638 269.937 296.638V296.638Z" stroke="#FFD682" stroke-width="2"/>
<path d="M317.443 201.654V249.169C317.443 261.771 312.436 273.857 303.524 282.768C294.612 291.679 282.524 296.685 269.92 296.685V249.169C269.92 236.567 274.927 224.482 283.839 215.571C292.751 206.66 304.839 201.654 317.443 201.654V201.654Z" stroke="#FFD682" stroke-width="2"/>
<path d="M122.15 249.137V344.137H169.673C169.673 356.739 164.666 368.825 155.754 377.735C146.842 386.646 134.754 391.652 122.15 391.652H74.627V296.621C74.6354 284.025 79.6459 271.947 88.5574 263.043C97.4688 254.139 109.552 249.137 122.15 249.137V249.137Z" stroke="#FFD682" stroke-width="2"/>
<path d="M169.64 154.138V201.654C169.64 214.256 164.633 226.341 155.721 235.252C146.809 244.163 134.721 249.169 122.117 249.169V154.138H169.64Z" stroke="#FFD682" stroke-width="2"/>
<path d="M264.656 154.138V201.654C264.656 214.256 259.649 226.341 250.737 235.252C241.824 244.163 229.737 249.169 217.133 249.169V154.138H264.656Z" stroke="#FFD682" stroke-width="2"/>
<path d="M217.148 249.137V296.653C217.148 309.255 212.141 321.341 203.229 330.251C194.317 339.162 182.229 344.169 169.625 344.169V296.653C169.625 284.051 174.632 271.965 183.544 263.054C192.457 254.143 204.544 249.137 217.148 249.137V249.137Z" stroke="#FFD682" stroke-width="2"/>
<path d="M27.0075 154.138H74.5307V249.138C74.5307 255.378 73.3014 261.556 70.9132 267.321C68.5249 273.086 65.0244 278.324 60.6114 282.736C56.1985 287.149 50.9596 290.649 45.1938 293.036C39.4281 295.424 33.2483 296.653 27.0075 296.653V201.654H-20.5156C-20.5156 189.052 -15.5087 176.966 -6.59641 168.055C2.31591 159.144 14.4036 154.138 27.0075 154.138Z" stroke="#FFD682" stroke-width="2"/>
<path d="M-20.5 391.642V344.126C-20.5 331.524 -15.4931 319.439 -6.5808 310.528C2.33152 301.617 14.4192 296.611 27.0231 296.611V391.642H-20.5Z" stroke="#FFD682" stroke-width="2"/>
<path d="M75.154 398.579H27.6309V493.579C27.6309 506.181 32.6378 518.266 41.5501 527.177C50.4624 536.088 62.5501 541.094 75.154 541.094V446.095H122.677C122.677 433.493 117.67 421.407 108.758 412.496C99.8456 403.585 87.7579 398.579 75.154 398.579V398.579Z" stroke="#FFD682" stroke-width="2"/>
<path d="M270.449 398.579V446.095C270.449 458.697 275.456 470.782 284.368 479.693C293.281 488.604 305.368 493.61 317.972 493.61V398.579H270.449Z" stroke="#FFD682" stroke-width="2"/>
<path d="M175.434 398.579V446.095C175.434 458.697 180.44 470.782 189.353 479.693C198.265 488.604 210.353 493.61 222.957 493.61V398.579H175.434Z" stroke="#FFD682" stroke-width="2"/>
</g>
</g>
<defs>
<clipPath id="clip0_839_24153">
<rect width="296" height="428" rx="9.18552" fill="white"/>
</clipPath>
<clipPath id="clip1_839_24153">
<rect width="1014.88" height="571.244" fill="white" transform="translate(-287.605 -13.2225)"/>
</clipPath>
</defs>
</svg>
