<svg width="393" height="834" viewBox="0 0 393 834" fill="none" xmlns="http://www.w3.org/2000/svg">
<g filter="url(#filter0_d_0_1)">
<path d="M196 818H393V279H209.5L196 818Z" fill="#00187F"/>
</g>
<g filter="url(#filter1_d_0_1)">
<path d="M0 -15H197L203.5 524H0V-15Z" fill="#00187F"/>
</g>
<path d="M156.994 348.232C181.93 344.688 197.911 382.428 196.96 410C177.928 410 161.035 405.271 147.471 394.783C131.272 382.257 130.341 352.021 156.994 348.232Z" stroke="#FFD682" stroke-width="2"/>
<path d="M221.266 372.142C206.141 369.97 196.447 393.101 197.024 410C208.568 410 218.815 407.102 227.042 400.673C236.868 392.996 237.433 374.464 221.266 372.142Z" stroke="#FFD682" stroke-width="2"/>
<path d="M197 409.948C310.5 409.948 363 308.5 404 308.5" stroke="#FFD682" stroke-width="2"/>
<path d="M197 409.948C181.756 410.486 80.5 409.948 80.5 341.5" stroke="#FFD682" stroke-width="2"/>
<path d="M391 410L2 410" stroke="#FFD682" stroke-width="2"/>
<defs>
<filter id="filter0_d_0_1" x="180" y="263" width="229" height="571" filterUnits="userSpaceOnUse" color-interpolation-filters="sRGB">
<feFlood flood-opacity="0" result="BackgroundImageFix"/>
<feColorMatrix in="SourceAlpha" type="matrix" values="0 0 0 0 0 0 0 0 0 0 0 0 0 0 0 0 0 0 127 0" result="hardAlpha"/>
<feOffset/>
<feGaussianBlur stdDeviation="8"/>
<feComposite in2="hardAlpha" operator="out"/>
<feColorMatrix type="matrix" values="0 0 0 0 0 0 0 0 0 0 0 0 0 0 0 0 0 0 0.65 0"/>
<feBlend mode="normal" in2="BackgroundImageFix" result="effect1_dropShadow_0_1"/>
<feBlend mode="normal" in="SourceGraphic" in2="effect1_dropShadow_0_1" result="shape"/>
</filter>
<filter id="filter1_d_0_1" x="-16" y="-31" width="235.5" height="571" filterUnits="userSpaceOnUse" color-interpolation-filters="sRGB">
<feFlood flood-opacity="0" result="BackgroundImageFix"/>
<feColorMatrix in="SourceAlpha" type="matrix" values="0 0 0 0 0 0 0 0 0 0 0 0 0 0 0 0 0 0 127 0" result="hardAlpha"/>
<feOffset/>
<feGaussianBlur stdDeviation="8"/>
<feComposite in2="hardAlpha" operator="out"/>
<feColorMatrix type="matrix" values="0 0 0 0 0 0 0 0 0 0 0 0 0 0 0 0 0 0 0.65 0"/>
<feBlend mode="normal" in2="BackgroundImageFix" result="effect1_dropShadow_0_1"/>
<feBlend mode="normal" in="SourceGraphic" in2="effect1_dropShadow_0_1" result="shape"/>
</filter>
</defs>
</svg>
