<svg width="1440" height="311" viewBox="0 0 1440 311" fill="none" xmlns="http://www.w3.org/2000/svg">
<path d="M62.8804 1H1V124.72C1 141.131 7.51952 156.871 19.1243 168.476C30.7292 180.08 46.4687 186.6 62.8804 186.6V62.8804H124.761C124.761 46.4687 118.241 30.7292 106.636 19.1243C95.0316 7.51952 79.2921 1 62.8804 1Z" stroke="white"/>
<path d="M124.72 310.306V248.425C124.72 240.299 123.12 232.252 120.01 224.745C116.9 217.237 112.342 210.415 106.596 204.669C100.85 198.923 94.0281 194.365 86.5204 191.255C79.0128 188.146 70.9661 186.545 62.8398 186.545V310.306H124.72Z" stroke="white"/>
<path d="M186.58 186.579V310.34H248.46V248.46C248.46 232.048 241.941 216.308 230.336 204.703C218.731 193.099 202.992 186.579 186.58 186.579V186.579Z" stroke="white"/>
<path d="M124.719 62.8804V124.761C124.719 141.172 131.238 156.912 142.843 168.517C154.448 180.122 170.187 186.641 186.599 186.641V124.761C186.599 108.349 180.08 92.6095 168.475 81.0047C156.87 69.3999 141.13 62.8804 124.719 62.8804V62.8804Z" stroke="white"/>
<path d="M379.035 124.719V248.439H317.154C317.154 264.851 323.674 280.59 335.279 292.195C346.883 303.8 362.623 310.319 379.035 310.319H440.915V186.559C440.904 170.154 434.38 154.425 422.776 142.829C411.173 131.233 395.439 124.719 379.035 124.719V124.719Z" stroke="white"/>
<path d="M317.174 1V62.8804C317.174 79.2921 323.693 95.0316 335.298 106.636C346.903 118.241 362.643 124.761 379.054 124.761V1H317.174Z" stroke="white"/>
<path d="M193.455 1V62.8804C193.455 79.2921 199.975 95.0316 211.579 106.636C223.184 118.241 238.924 124.761 255.335 124.761V1H193.455Z" stroke="white"/>
<path d="M255.314 124.719V186.6C255.314 203.012 261.834 218.751 273.439 230.356C285.044 241.961 300.783 248.48 317.195 248.48V186.6C317.195 170.188 310.675 154.449 299.071 142.844C287.466 131.239 271.726 124.719 255.314 124.719V124.719Z" stroke="white"/>
<path d="M502.88 1H441V124.72C441 141.131 447.52 156.871 459.124 168.476C470.729 180.08 486.469 186.6 502.88 186.6V62.8804H564.761C564.761 46.4687 558.241 30.7292 546.636 19.1243C535.032 7.51952 519.292 1 502.88 1Z" stroke="white"/>
<path d="M564.72 310.306V248.425C564.72 240.299 563.12 232.252 560.01 224.745C556.9 217.237 552.342 210.415 546.596 204.669C540.85 198.923 534.028 194.365 526.52 191.255C519.013 188.146 510.966 186.545 502.84 186.545V310.306H564.72Z" stroke="white"/>
<path d="M626.58 186.579V310.34H688.46V248.46C688.46 232.048 681.941 216.308 670.336 204.703C658.731 193.099 642.992 186.579 626.58 186.579V186.579Z" stroke="white"/>
<path d="M564.719 62.8804V124.761C564.719 141.172 571.238 156.912 582.843 168.517C594.448 180.122 610.187 186.641 626.599 186.641V124.761C626.599 108.349 620.08 92.6095 608.475 81.0047C596.87 69.3999 581.13 62.8804 564.719 62.8804V62.8804Z" stroke="white"/>
<path d="M819.035 124.719V248.439H757.154C757.154 264.851 763.674 280.59 775.279 292.195C786.883 303.8 802.623 310.319 819.035 310.319H880.915V186.559C880.904 170.154 874.38 154.425 862.776 142.829C851.173 131.233 835.439 124.719 819.035 124.719V124.719Z" stroke="white"/>
<path d="M757.174 1V62.8804C757.174 79.2921 763.693 95.0316 775.298 106.636C786.903 118.241 802.643 124.761 819.054 124.761V1H757.174Z" stroke="white"/>
<path d="M633.455 1V62.8804C633.455 79.2921 639.975 95.0316 651.579 106.636C663.184 118.241 678.924 124.761 695.335 124.761V1H633.455Z" stroke="white"/>
<path d="M695.314 124.719V186.6C695.314 203.012 701.834 218.751 713.439 230.356C725.044 241.961 740.783 248.48 757.195 248.48V186.6C757.195 170.188 750.675 154.449 739.071 142.844C727.466 131.239 711.726 124.719 695.314 124.719V124.719Z" stroke="white"/>
<path d="M502.88 1H441V124.72C441 141.131 447.52 156.871 459.124 168.476C470.729 180.08 486.469 186.6 502.88 186.6V62.8804H564.761C564.761 46.4687 558.241 30.7292 546.636 19.1243C535.032 7.51952 519.292 1 502.88 1Z" stroke="white"/>
<path d="M564.72 310.306V248.425C564.72 240.299 563.12 232.252 560.01 224.745C556.9 217.237 552.342 210.415 546.596 204.669C540.85 198.923 534.028 194.365 526.52 191.255C519.013 188.146 510.966 186.545 502.84 186.545V310.306H564.72Z" stroke="white"/>
<path d="M626.58 186.579V310.34H688.46V248.46C688.46 232.048 681.941 216.308 670.336 204.703C658.731 193.099 642.992 186.579 626.58 186.579V186.579Z" stroke="white"/>
<path d="M564.719 62.8804V124.761C564.719 141.172 571.238 156.912 582.843 168.517C594.448 180.122 610.187 186.641 626.599 186.641V124.761C626.599 108.349 620.08 92.6095 608.475 81.0047C596.87 69.3999 581.13 62.8804 564.719 62.8804V62.8804Z" stroke="white"/>
<path d="M819.035 124.719V248.439H757.154C757.154 264.851 763.674 280.59 775.279 292.195C786.883 303.8 802.623 310.319 819.035 310.319H880.915V186.559C880.904 170.154 874.38 154.425 862.776 142.829C851.173 131.233 835.439 124.719 819.035 124.719V124.719Z" stroke="white"/>
<path d="M757.174 1V62.8804C757.174 79.2921 763.693 95.0316 775.298 106.636C786.903 118.241 802.643 124.761 819.054 124.761V1H757.174Z" stroke="white"/>
<path d="M633.455 1V62.8804C633.455 79.2921 639.975 95.0316 651.579 106.636C663.184 118.241 678.924 124.761 695.335 124.761V1H633.455Z" stroke="white"/>
<path d="M695.314 124.719V186.6C695.314 203.012 701.834 218.751 713.439 230.356C725.044 241.961 740.783 248.48 757.195 248.48V186.6C757.195 170.188 750.675 154.449 739.071 142.844C727.466 131.239 711.726 124.719 695.314 124.719V124.719Z" stroke="white"/>
<path d="M942.88 1H881V124.72C881 141.131 887.52 156.871 899.124 168.476C910.729 180.08 926.469 186.6 942.88 186.6V62.8804H1004.76C1004.76 46.4687 998.241 30.7292 986.636 19.1243C975.032 7.51952 959.292 1 942.88 1Z" stroke="white"/>
<path d="M1004.72 310.306V248.425C1004.72 240.299 1003.12 232.252 1000.01 224.745C996.9 217.237 992.342 210.415 986.596 204.669C980.85 198.923 974.028 194.365 966.52 191.255C959.013 188.146 950.966 186.545 942.84 186.545V310.306H1004.72Z" stroke="white"/>
<path d="M1066.58 186.579V310.34H1128.46V248.46C1128.46 232.048 1121.94 216.308 1110.34 204.703C1098.73 193.099 1082.99 186.579 1066.58 186.579V186.579Z" stroke="white"/>
<path d="M1004.72 62.8804V124.761C1004.72 141.172 1011.24 156.912 1022.84 168.517C1034.45 180.122 1050.19 186.641 1066.6 186.641V124.761C1066.6 108.349 1060.08 92.6095 1048.47 81.0047C1036.87 69.3999 1021.13 62.8804 1004.72 62.8804V62.8804Z" stroke="white"/>
<path d="M1259.03 124.719V248.439H1197.15C1197.15 264.851 1203.67 280.59 1215.28 292.195C1226.88 303.8 1242.62 310.319 1259.03 310.319H1320.92V186.559C1320.9 170.154 1314.38 154.425 1302.78 142.829C1291.17 131.233 1275.44 124.719 1259.03 124.719V124.719Z" stroke="white"/>
<path d="M1197.17 1V62.8804C1197.17 79.2921 1203.69 95.0316 1215.3 106.636C1226.9 118.241 1242.64 124.761 1259.05 124.761V1H1197.17Z" stroke="white"/>
<path d="M1073.46 1V62.8804C1073.46 79.2921 1079.97 95.0316 1091.58 106.636C1103.18 118.241 1118.92 124.761 1135.34 124.761V1H1073.46Z" stroke="white"/>
<path d="M1135.31 124.719V186.6C1135.31 203.012 1141.83 218.751 1153.44 230.356C1165.04 241.961 1180.78 248.48 1197.19 248.48V186.6C1197.19 170.188 1190.68 154.449 1179.07 142.844C1167.47 131.239 1151.73 124.719 1135.31 124.719V124.719Z" stroke="white"/>
<path d="M942.88 1H881V124.72C881 141.131 887.52 156.871 899.124 168.476C910.729 180.08 926.469 186.6 942.88 186.6V62.8804H1004.76C1004.76 46.4687 998.241 30.7292 986.636 19.1243C975.032 7.51952 959.292 1 942.88 1Z" stroke="white"/>
<path d="M1004.72 310.306V248.425C1004.72 240.299 1003.12 232.252 1000.01 224.745C996.9 217.237 992.342 210.415 986.596 204.669C980.85 198.923 974.028 194.365 966.52 191.255C959.013 188.146 950.966 186.545 942.84 186.545V310.306H1004.72Z" stroke="white"/>
<path d="M1066.58 186.579V310.34H1128.46V248.46C1128.46 232.048 1121.94 216.308 1110.34 204.703C1098.73 193.099 1082.99 186.579 1066.58 186.579V186.579Z" stroke="white"/>
<path d="M1004.72 62.8804V124.761C1004.72 141.172 1011.24 156.912 1022.84 168.517C1034.45 180.122 1050.19 186.641 1066.6 186.641V124.761C1066.6 108.349 1060.08 92.6095 1048.47 81.0047C1036.87 69.3999 1021.13 62.8804 1004.72 62.8804V62.8804Z" stroke="white"/>
<path d="M1259.03 124.719V248.439H1197.15C1197.15 264.851 1203.67 280.59 1215.28 292.195C1226.88 303.8 1242.62 310.319 1259.03 310.319H1320.92V186.559C1320.9 170.154 1314.38 154.425 1302.78 142.829C1291.17 131.233 1275.44 124.719 1259.03 124.719V124.719Z" stroke="white"/>
<path d="M1197.17 1V62.8804C1197.17 79.2921 1203.69 95.0316 1215.3 106.636C1226.9 118.241 1242.64 124.761 1259.05 124.761V1H1197.17Z" stroke="white"/>
<path d="M1073.46 1V62.8804C1073.46 79.2921 1079.97 95.0316 1091.58 106.636C1103.18 118.241 1118.92 124.761 1135.34 124.761V1H1073.46Z" stroke="white"/>
<path d="M1135.31 124.719V186.6C1135.31 203.012 1141.83 218.751 1153.44 230.356C1165.04 241.961 1180.78 248.48 1197.19 248.48V186.6C1197.19 170.188 1190.68 154.449 1179.07 142.844C1167.47 131.239 1151.73 124.719 1135.31 124.719V124.719Z" stroke="white"/>
<path d="M1382.88 1H1321V124.72C1321 141.131 1327.52 156.871 1339.12 168.476C1350.73 180.08 1366.47 186.6 1382.88 186.6V62.8804H1444.76C1444.76 46.4687 1438.24 30.7292 1426.64 19.1243C1415.03 7.51952 1399.29 1 1382.88 1Z" stroke="white"/>
<path d="M1444.72 310.306V248.425C1444.72 240.299 1443.12 232.252 1440.01 224.745C1436.9 217.237 1432.34 210.415 1426.6 204.669C1420.85 198.923 1414.03 194.365 1406.52 191.255C1399.01 188.146 1390.97 186.545 1382.84 186.545V310.306H1444.72Z" stroke="white"/>
</svg>
