<svg width="22" height="22" viewBox="0 0 22 22" fill="none" xmlns="http://www.w3.org/2000/svg">
<path fill-rule="evenodd" clip-rule="evenodd" d="M11.0007 1.83337C5.94065 1.83337 1.83398 5.94004 1.83398 11C1.83398 16.06 5.94065 20.1667 11.0007 20.1667C16.0607 20.1667 20.1673 16.06 20.1673 11C20.1673 5.94004 16.0607 1.83337 11.0007 1.83337ZM11.0007 18.3334C6.94898 18.3334 3.66732 15.0517 3.66732 11C3.66732 6.94837 6.94898 3.66671 11.0007 3.66671C15.0523 3.66671 18.334 6.94837 18.334 11C18.334 15.0517 15.0523 18.3334 11.0007 18.3334ZM11.0007 15.5834C13.532 15.5834 15.584 13.5313 15.584 11C15.584 8.46874 13.532 6.41671 11.0007 6.41671C8.46935 6.41671 6.41732 8.46874 6.41732 11C6.41732 13.5313 8.46935 15.5834 11.0007 15.5834Z" fill="white"/>
</svg>
