<svg width="391" height="451" viewBox="0 0 391 451" fill="none" xmlns="http://www.w3.org/2000/svg">
<path d="M196.999 -389C196.999 -389 185.499 -16.5 186.499 30.5C187.499 77.5 206.999 175 208.999 236C210.999 297 186.499 413 196.999 450" stroke="#FFD682" stroke-width="2"/>
<path d="M154.994 348.232C179.93 344.688 195.911 382.428 194.96 410C175.928 410 159.035 405.271 145.471 394.783C129.272 382.257 128.341 352.021 154.994 348.232Z" stroke="#FFD682" stroke-width="2"/>
<path d="M219.266 372.142C204.141 369.97 194.447 393.101 195.024 410C206.568 410 216.815 407.102 225.042 400.673C234.868 392.996 235.433 374.464 219.266 372.142Z" stroke="#FFD682" stroke-width="2"/>
<path d="M195 409.948C308.5 409.948 361 308.5 402 308.5" stroke="#FFD682" stroke-width="2"/>
<path d="M195 409.948C179.756 410.486 78.5 409.948 78.5 341.5" stroke="#FFD682" stroke-width="2"/>
<path d="M389 410L0 410" stroke="#FFD682" stroke-width="2"/>
</svg>
